<svg width="43" height="35" viewBox="0 0 43 35" fill="none" xmlns="http://www.w3.org/2000/svg">
<path d="M11.467 0C5.06937 0.423389 0.000244141 5.78631 0.000244141 12.3488H6.25799C6.25799 9.27927 8.53036 6.70366 11.5019 6.31555V0H11.467Z" fill="#242424"/>
<path d="M13.1095 0V6.31555C16.0461 6.73894 18.2835 9.27927 18.2835 12.3488H24.5412C24.5412 5.78631 19.4721 0.423389 13.1095 0Z" fill="#242424"/>
<path d="M29.855 0C23.4574 0.423389 18.3883 5.78631 18.3883 12.3488H24.6461C24.6461 9.27927 26.9184 6.70366 29.89 6.31555V0H29.855Z" fill="#242424"/>
<path d="M31.498 0V6.31555C34.4346 6.73894 36.672 9.27927 36.672 12.3488H42.9298C42.9298 5.78631 37.8956 0.423389 31.498 0Z" fill="#242424"/>
<path d="M20.696 28.2965C17.6196 26.7793 7.02685 20.993 6.53742 14.0424H0C0.489433 24.4154 16.7806 32.989 20.6611 34.8943V28.2965H20.696Z" fill="#242424"/>
<path d="M36.4976 14.0424C36.0431 20.993 25.4154 26.7793 22.339 28.2965V34.8943C26.2195 32.989 42.5456 24.4154 43 14.0424H36.4976V14.0424Z" fill="#242424"/>
</svg>
